<svg version="1.1" id="Layer_1" xmlns="http://www.w3.org/2000/svg" xmlns:xlink="http://www.w3.org/1999/xlink" x="0px" y="0px"
	 width="100%" viewBox="0 0 1024 544" enable-background="new 0 0 1024 544" xml:space="preserve">
<path fill="#000000" opacity="1.000000" stroke="none" 
	d="
M515.479004,397.420807 
	C508.512970,398.790985 501.961731,397.830078 495.609253,396.950409 
	C481.644226,395.016632 467.433716,394.128174 454.160492,388.479309 
	C448.879028,386.231567 444.625763,382.384979 439.440704,380.068420 
	C438.204712,379.516235 437.296600,378.382874 437.646606,376.827911 
	C438.055542,375.011078 439.535248,374.663971 441.102234,374.568176 
	C450.600891,373.987427 459.957977,372.584808 469.061920,369.735382 
	C471.915955,368.842133 474.748260,367.878845 477.585480,366.932495 
	C482.870178,365.169769 487.953857,364.483551 493.637573,366.256927 
	C505.194000,369.862549 516.376526,368.395996 527.396118,362.955475 
	C531.946899,360.708679 536.151306,356.461945 541.449829,356.890991 
	C545.787048,357.242218 550.074036,356.029175 554.115295,356.716003 
	C559.134583,357.569061 563.174683,355.140594 566.837646,353.400940 
	C575.154114,349.451294 583.693420,345.345978 589.338989,337.311707 
	C591.121521,334.774963 593.669739,332.687531 596.140137,330.740356 
	C602.362915,325.835602 604.835388,317.709656 611.460693,313.172058 
	C612.647522,312.359161 613.233276,310.999481 612.195312,309.697266 
	C610.889893,308.059540 609.829346,306.184143 607.139038,306.183746 
	C603.376587,306.183228 599.927307,307.419647 596.393066,308.313507 
	C584.749268,311.258392 573.803650,315.950958 562.607422,321.546692 
	C564.747070,323.544495 566.472900,322.567749 568.095154,322.287201 
	C573.827332,321.296021 579.516052,319.871948 585.390198,321.485046 
	C589.327087,322.566254 592.263306,324.613098 591.826416,329.055664 
	C591.392700,333.466461 588.394043,335.845917 584.093750,336.182526 
	C581.809082,336.361328 579.401489,336.131989 577.167114,335.595978 
	C565.935791,332.901489 554.998413,334.410828 544.169434,337.650757 
	C521.959778,344.295746 500.656769,353.397552 479.028748,361.630646 
	C461.058655,368.471313 442.342896,370.715302 423.105530,370.136841 
	C417.172638,369.958405 411.183044,368.884583 404.808441,371.508972 
	C400.575928,373.251465 394.471527,372.789062 388.848022,370.566895 
	C384.038513,368.666382 378.712402,367.187012 373.532532,365.973602 
	C371.096680,365.403015 369.616760,364.529022 368.625244,362.600555 
	C365.094055,355.732483 359.500824,352.645477 351.829407,352.005341 
	C346.775391,351.583618 342.489532,348.516205 339.042236,344.770416 
	C336.798584,342.332458 335.266296,339.345917 338.238159,336.372742 
	C341.015564,333.594147 344.036285,334.643860 346.905914,336.423676 
	C348.864044,337.638214 349.868561,340.000824 352.282928,340.742371 
	C353.537445,341.127686 354.694061,342.158508 355.913940,340.896332 
	C357.269623,339.493622 356.551453,337.979431 355.615082,336.836670 
	C354.388092,335.339264 353.066833,333.995026 351.324890,332.849518 
	C344.869995,328.604858 339.415070,323.220062 335.726868,316.327026 
	C334.810120,314.613678 334.270935,312.557800 334.109680,310.613617 
	C333.866638,307.684021 335.161713,305.357513 338.212280,304.577576 
	C341.064240,303.848480 343.202850,305.156891 344.301758,307.703430 
	C345.482819,310.440399 346.276184,313.345520 347.222076,316.182861 
	C348.366394,319.615234 349.138885,323.240662 352.719635,326.313782 
	C353.700012,321.398895 354.945862,317.337830 353.864899,312.540680 
	C350.643921,298.246643 352.522400,284.210693 357.290283,270.493713 
	C357.709839,269.286682 358.022156,267.904419 359.859070,267.047211 
	C362.772827,277.830109 363.623199,289.192627 369.809753,300.063751 
	C372.183319,293.051941 369.999573,287.542206 368.203827,282.336761 
	C361.332336,262.418152 361.872101,242.128738 364.069977,221.624237 
	C365.364075,209.551254 369.635895,198.376785 373.527710,187.055084 
	C374.888611,183.096176 378.333862,180.299637 379.201965,176.009979 
	C380.197510,171.090912 378.775757,168.753708 373.729370,168.302109 
	C370.100220,167.977341 366.365723,168.837723 362.838074,167.417358 
	C361.158264,166.740997 359.046570,166.157837 358.980560,163.993225 
	C358.910126,161.685135 361.160583,161.127579 362.828979,160.721451 
	C366.825378,159.748672 370.683380,159.063538 375.042236,160.205246 
	C381.347137,161.856720 387.824921,160.222015 395.194855,159.077728 
	C392.191437,157.825729 390.188202,157.167984 387.844147,157.393845 
	C381.948608,157.961899 378.123535,153.975067 379.507843,148.272705 
	C380.833618,142.811646 382.458435,137.561737 388.848175,135.191147 
	C393.249268,133.558365 396.707245,129.886307 401.561737,128.645096 
	C406.434235,127.399277 404.555267,123.779495 403.047516,121.080582 
	C398.788605,113.457001 398.689850,113.452988 403.801117,106.606171 
	C404.598053,105.538658 405.435181,104.491638 406.130951,103.359665 
	C410.236237,96.680618 415.365143,94.029404 423.305145,97.395218 
	C428.457031,99.579124 434.569458,94.106232 434.603119,88.148880 
	C434.668030,76.666595 441.294617,68.839539 452.702789,66.549370 
	C456.145844,65.858177 458.407715,67.903664 460.843597,69.559135 
	C468.840942,74.994377 478.282501,71.802490 481.309906,62.576797 
	C483.628632,55.510876 493.476746,50.435562 500.716309,52.533245 
	C503.768433,53.417606 504.527405,55.523304 503.885773,58.331036 
	C502.070801,66.273598 500.301941,74.215446 499.730530,82.378342 
	C499.501862,85.645050 497.687225,86.906456 494.284821,87.587700 
	C462.714630,93.908798 438.859253,110.909683 423.661194,139.550232 
	C421.927704,142.816925 421.479065,146.453659 420.914520,150.097748 
	C420.313080,153.980362 422.272308,154.921082 425.331726,154.911652 
	C427.988464,154.903473 430.712921,154.852585 433.288605,154.283096 
	C445.828247,151.510620 458.572266,150.293137 471.304077,148.922012 
	C477.369476,148.268814 478.418823,145.703735 474.998383,140.605042 
	C471.679840,135.658218 468.399109,130.685272 465.164856,125.682976 
	C463.053833,122.417908 460.384003,121.709808 457.914215,124.801750 
	C451.948914,132.269836 444.405334,138.435242 439.706482,146.946548 
	C437.903046,150.213196 433.552124,151.049835 427.023834,149.563522 
	C426.153412,147.438370 427.313080,145.642532 428.143494,143.893982 
	C433.572540,132.462845 441.118805,122.584480 450.547577,114.182480 
	C452.418793,112.515015 454.365295,110.661270 457.584656,112.739540 
	C459.367859,113.890686 461.292145,111.133148 464.189575,110.802711 
	C460.904724,107.168266 463.108734,105.496811 465.936676,103.838722 
	C474.065063,99.072876 482.710175,95.756485 491.966248,93.962982 
	C495.889984,93.202690 497.138123,93.987267 496.792267,98.517517 
	C496.375031,103.982613 494.235535,106.321167 488.993256,107.552132 
	C484.194214,108.679031 479.687683,111.067566 474.873383,112.474007 
	C471.756622,113.384529 470.730347,116.287842 473.677155,117.970551 
	C479.331909,121.199593 483.755280,126.184029 489.833008,128.735275 
	C493.356781,130.214417 495.814880,129.761749 496.212738,125.543892 
	C497.867828,107.998535 503.431366,91.147720 505.097961,73.563950 
	C506.239441,61.520611 508.875916,49.618389 510.868744,37.657192 
	C511.086426,36.350456 511.368591,35.006218 514.261902,34.057407 
	C516.887695,44.298786 517.162231,54.881145 519.550659,64.996490 
	C521.960876,75.204430 523.007446,85.636169 525.307861,96.283813 
	C525.483093,86.703514 532.314758,89.600464 537.557617,89.565239 
	C537.258545,88.992889 537.121765,88.488937 536.975891,88.486305 
	C523.557312,88.243637 527.190308,76.949272 524.887146,69.627800 
	C523.951294,66.652817 524.225891,63.303932 523.343079,60.303654 
	C522.195618,56.403801 523.816711,54.783539 527.261658,53.834614 
	C532.132996,52.492783 536.856018,52.999081 541.445984,54.824169 
	C544.883057,56.190819 545.688782,59.414726 545.979736,62.608261 
	C546.347900,66.649704 548.509399,69.078911 552.158508,70.209343 
	C555.826416,71.345589 559.055542,71.083206 562.209167,68.054520 
	C568.896057,61.632565 571.732178,61.407051 580.092285,65.507050 
	C582.478210,66.677132 584.645508,68.290451 587.023193,69.480331 
	C592.893494,72.418007 595.407959,76.501549 594.388245,83.528992 
	C593.033752,92.864510 598.234985,96.495041 606.969604,93.000648 
	C611.234619,91.294380 614.825195,91.849297 617.872314,95.172989 
	C621.130432,98.726715 624.339844,102.338676 627.353943,106.098801 
	C630.774963,110.366447 631.413818,114.809578 628.639954,119.981583 
	C624.797791,127.145775 626.358398,129.932144 634.178223,131.442001 
	C645.615479,133.650314 650.855164,139.812210 650.486084,151.696762 
	C650.367004,155.531448 651.485352,156.697769 654.991577,157.037476 
	C657.784668,157.308060 660.505066,158.287476 663.271179,158.890594 
	C666.833557,159.667358 668.053101,161.988678 668.050415,165.446686 
	C668.047791,168.838943 666.054749,170.038223 663.192566,170.758743 
	C659.042236,171.803528 654.935913,173.022675 650.634644,174.216354 
	C651.988953,180.916306 656.851196,185.183167 658.770142,191.056152 
	C664.720276,209.267166 668.819824,227.607742 666.141235,246.902527 
	C665.381653,252.373886 663.050049,254.223648 657.727661,253.252625 
	C651.481567,252.113098 645.184814,251.622147 638.864685,251.416840 
	C635.883667,251.319992 634.089355,250.291962 633.991516,247.097626 
	C633.501404,231.095261 629.106018,215.904068 623.765381,201.021683 
	C621.315369,194.194412 617.638855,187.771637 614.145447,181.369003 
	C612.322693,178.028320 606.372681,178.494690 604.590881,182.002274 
	C603.320557,184.502823 602.505432,187.258560 601.688843,189.961349 
	C598.591614,200.213150 591.526855,207.602997 583.304321,213.614487 
	C572.449158,221.550720 560.527100,219.772858 549.032349,214.805542 
	C544.501221,212.847473 541.439575,213.735672 538.523865,217.197723 
	C537.655334,218.228973 536.546692,219.230453 536.960205,220.665604 
	C537.450500,222.367188 539.067932,222.694077 540.591370,222.772614 
	C546.199585,223.061752 551.345276,224.699493 556.200378,227.538422 
	C566.623413,233.633041 569.376892,245.623230 562.370178,255.388275 
	C553.009888,268.433472 540.965576,278.508942 527.160400,286.511566 
	C520.545410,290.346161 514.101318,294.542175 506.873779,297.235199 
	C504.306915,298.191559 501.537109,300.443024 499.149872,297.517181 
	C496.943481,294.813110 498.957214,292.155304 500.371918,289.720459 
	C506.085968,279.886383 513.517639,271.296906 520.334106,262.261597 
	C521.600403,260.583069 523.458801,259.200378 523.216858,256.747162 
	C518.218201,254.749283 511.251221,255.797302 508.171661,259.602692 
	C497.896393,272.299866 484.440216,280.624237 470.406158,288.439880 
	C457.721558,295.504028 446.790558,305.050995 436.398193,315.147400 
	C434.096008,317.384003 431.548615,319.230042 428.836365,320.841370 
	C424.991577,323.125458 422.575378,321.777649 421.986664,317.271667 
	C421.437469,313.068359 422.881104,309.284393 424.879120,305.836578 
	C431.641327,294.167206 438.390106,282.496704 446.888092,271.917297 
	C450.645447,267.239594 455.803406,264.467133 460.170593,260.645966 
	C467.706421,254.052368 472.891815,245.748383 478.103027,237.429230 
	C479.433563,235.305115 480.021729,232.882538 480.174744,230.309845 
	C480.585541,223.401489 483.450287,217.515106 487.899200,212.279510 
	C491.986969,207.468948 496.487061,202.899612 498.653564,196.771667 
	C500.630280,191.180588 498.862732,188.352417 492.887909,188.432556 
	C484.701416,188.542297 477.288147,191.694427 470.334656,195.748383 
	C465.307404,198.679321 460.601959,202.156952 455.652039,205.228058 
	C453.102692,206.809799 450.067474,208.578873 447.414032,206.011581 
	C444.955719,203.633087 445.740967,200.352066 447.135742,197.588165 
	C449.460327,192.981720 452.150024,188.560089 454.495605,183.963501 
	C456.553345,179.931030 455.561249,178.240311 451.148651,178.443558 
	C440.075684,178.953598 429.364380,177.317657 418.894592,173.734085 
	C414.381256,172.189270 412.383087,173.782990 413.551666,178.557953 
	C415.324188,185.800812 414.102478,191.004700 406.857178,194.679337 
	C403.364838,196.450562 402.136749,201.026031 400.753143,204.687866 
	C392.388245,226.826538 390.953369,249.670288 394.288544,272.949799 
	C395.401367,280.717224 399.311188,287.535217 403.366913,293.743347 
	C405.787445,297.448517 410.646149,300.098907 414.015015,303.735138 
	C416.330017,306.233765 417.866516,308.448425 416.812653,312.081726 
	C415.831116,315.465820 416.658844,318.601471 419.575714,321.026581 
	C420.666840,321.933746 421.691254,323.100739 421.904633,324.892334 
	C419.316986,326.110413 416.605408,325.305328 413.334229,325.934113 
	C416.772369,328.366364 420.116608,329.199036 423.412781,328.994293 
	C440.058563,327.960327 454.573700,322.381744 465.042145,308.613342 
	C467.257629,305.699493 469.386200,302.676361 471.926636,300.065338 
	C474.286987,297.639374 477.381409,296.452576 480.422729,298.972015 
	C483.329102,301.379639 483.103851,304.440521 481.432556,307.567078 
	C479.538361,311.110718 476.606445,313.829681 473.470703,317.037903 
	C476.581482,318.468994 478.799530,317.186981 480.921539,316.198059 
	C497.540253,308.453247 513.533752,299.529572 529.415955,290.394012 
	C541.261841,283.580231 553.104736,276.761658 563.492676,267.772705 
	C568.802917,263.177643 573.077454,257.594391 577.673401,252.325256 
	C580.116821,249.523895 582.975403,247.264160 586.239929,245.534882 
	C589.079163,244.030869 592.026733,243.396729 594.416077,246.231812 
	C596.710449,248.954315 596.080261,251.931107 594.171143,254.524277 
	C592.315125,257.045380 590.099976,259.302124 588.267212,262.079987 
	C591.409668,261.147491 594.081116,259.326630 596.420776,256.998474 
	C601.379639,252.063858 606.263489,247.053940 611.210022,242.106750 
	C614.000732,239.315674 617.349487,237.585022 621.283569,236.999283 
	C624.626953,236.501465 627.292969,237.419540 628.638794,240.695435 
	C629.977112,243.953186 628.806946,246.788208 626.096497,248.570663 
	C623.341064,250.382706 620.143494,251.509735 617.204834,253.060532 
	C615.523315,253.947937 613.358276,254.385452 612.808838,257.143341 
	C615.217285,258.261536 617.614014,257.706879 619.998779,257.205536 
	C636.008911,253.839478 651.789185,255.236954 667.379028,259.654968 
	C675.090942,261.840454 681.612000,266.020966 686.914734,272.099121 
	C690.106628,275.757812 691.236389,279.859070 690.265747,284.610687 
	C688.882751,291.380768 683.055725,294.860016 676.371887,293.019989 
	C671.438782,291.661896 667.789978,288.083862 663.054077,285.961487 
	C665.891663,291.420654 668.182739,297.129761 672.407959,301.708527 
	C677.007019,306.692383 680.577515,312.216827 681.988403,318.960907 
	C682.714417,322.431366 682.998840,325.866608 681.689941,329.290405 
	C680.296448,332.935150 677.853088,335.222351 673.815552,334.955414 
	C670.004028,334.703430 667.912659,332.255280 666.969910,328.679199 
	C666.639771,327.426758 666.961548,325.959473 665.502258,324.705292 
	C662.419617,324.482208 661.525635,326.370972 661.968750,329.615540 
	C655.734192,329.543457 653.077515,334.417633 649.955627,338.213776 
	C641.210083,348.848114 630.499023,356.826630 618.296875,362.942932 
	C616.854736,363.665771 615.443176,365.364349 613.464355,363.249908 
	C612.213745,361.913574 611.029419,363.569458 610.252930,364.513824 
	C603.947815,372.181976 595.007385,375.444641 586.284851,379.168365 
	C578.794495,382.366058 572.247131,386.708191 569.017944,394.782013 
	C567.320923,399.024963 563.723267,399.051300 559.774170,398.570099 
	C545.209290,396.795624 530.583252,396.620300 515.479004,397.420807 
M559.670105,175.825562 
	C565.864502,173.031631 567.626221,167.428741 569.149414,161.464188 
	C569.973572,158.236847 567.171387,154.307999 570.165344,151.971298 
	C573.115845,149.668442 576.919556,152.062988 580.354431,151.982483 
	C581.984985,151.944290 583.871948,152.300720 584.647400,150.310059 
	C585.255005,148.750320 584.586548,147.323822 583.433777,146.242615 
	C578.087036,141.227646 574.599121,134.638077 568.997864,129.770172 
	C563.133789,124.673813 559.423035,124.766251 555.869263,131.814240 
	C553.429016,136.653824 550.382019,138.532562 544.890564,138.208984 
	C537.482544,137.772491 532.323486,142.327682 531.202087,149.376862 
	C534.289307,147.111710 537.024231,144.711670 540.114807,142.927750 
	C545.007751,140.103470 550.185303,138.567490 555.769165,141.368652 
	C565.625000,146.312851 568.896179,160.076767 562.378967,169.929382 
	C561.084351,171.886475 559.878845,173.842407 558.289978,176.139908 
	C556.122559,177.091721 553.200928,176.539322 551.651001,179.767929 
	C557.071411,185.044922 563.218079,189.232376 571.105835,188.702850 
	C576.869324,188.315948 581.358765,184.835007 585.274048,179.254379 
	C574.897339,175.273605 565.320007,181.810501 555.233398,179.449982 
	C556.861572,177.947632 557.925781,176.965652 559.670105,175.825562 
M527.217651,108.631805 
	C528.202209,114.692245 529.153625,120.758347 530.186157,126.810593 
	C530.661743,129.598389 532.241760,132.434372 534.939331,129.651382 
	C538.451477,126.028114 543.198792,124.127708 546.402039,120.183105 
	C549.535583,116.324486 549.568787,115.368568 545.216125,113.177910 
	C539.397522,110.249496 532.413757,109.685989 528.348816,103.722153 
	C526.843445,105.544075 527.217773,106.736511 527.217651,108.631805 
M511.083191,151.319916 
	C506.847687,152.464966 503.521851,154.809097 500.997070,159.183258 
	C511.147064,157.478592 519.298035,164.664368 529.038391,164.858505 
	C529.221191,161.740891 529.806335,158.542770 527.750366,157.617432 
	C522.558472,155.280655 518.341187,150.334305 511.083191,151.319916 
M615.830322,271.816040 
	C617.813904,271.832947 619.841553,272.118195 621.770325,271.801300 
	C624.391663,271.370514 629.118164,273.570068 629.077087,269.549988 
	C629.039673,265.883789 624.274109,267.359711 621.542480,267.213165 
	C617.425476,266.992279 613.046631,266.446899 609.779785,270.140350 
	C611.248230,272.279907 613.246033,271.518066 615.830322,271.816040 
M671.889832,270.238525 
	C669.302368,268.637451 666.638611,267.298553 661.969055,267.452301 
	C665.500732,269.594849 667.768555,271.115997 670.172852,272.376617 
	C671.699585,273.177094 673.336182,273.472107 671.889832,270.238525 
M637.420288,329.608459 
	C637.406433,328.505707 637.064697,327.594818 635.806946,327.520538 
	C634.528992,327.445129 634.102478,328.440735 633.906799,329.435486 
	C633.505249,331.476593 633.215027,333.539642 632.868042,335.660522 
	C636.310425,335.318573 636.506409,332.560852 637.420288,329.608459 
M630.238892,339.929565 
	C629.306152,341.739410 627.659790,343.355743 628.707275,346.034210 
	C631.782898,344.402496 632.728516,341.595001 633.828857,338.870056 
	C632.317871,337.776581 631.486389,338.655670 630.238892,339.929565 
z"/>
<path fill="#000000" opacity="1.000000" stroke="none" 
	d="
M689.783386,307.958862 
	C688.909424,308.009399 688.387756,308.063416 687.927551,307.920197 
	C685.147339,307.055084 683.159973,305.399048 683.367493,302.250183 
	C683.512512,300.048828 684.969910,298.508392 687.119385,298.179138 
	C689.812683,297.766632 691.449463,299.512787 692.481873,301.742798 
	C693.753967,304.490387 692.848145,306.550751 689.783386,307.958862 
z"/>
<path fill="#000000" opacity="1.000000" stroke="none" 
	d="
M549.961548,341.102539 
	C552.937988,340.141510 555.174316,340.619476 556.568115,343.242249 
	C557.474548,344.947815 556.937378,346.506561 555.647705,347.719574 
	C553.539551,349.702393 551.087585,349.849243 548.982788,347.927338 
	C546.440796,345.606232 547.172485,343.273621 549.961548,341.102539 
z"/>
</svg>